<?xml version="1.0" encoding="utf-8"?>
<!-- Generator: Adobe Illustrator 19.0.0, SVG Export Plug-In . SVG Version: 6.00 Build 0)  -->
<svg version="1.1" id="layer" xmlns="http://www.w3.org/2000/svg" xmlns:xlink="http://www.w3.org/1999/xlink" x="0px" y="0px"
	 viewBox="-153 -46 652 652" style="enable-background:new -153 -46 652 652;" xml:space="preserve">
<style type="text/css">
	.st0{fill:#FF0000;}
</style>
<g>
	<g>
		<path d="M-91.6,200.2l-40,117.2h23.5l11.3-34.2h32.5l11.6,34.2h24l-40.1-117.2H-91.6z M-70,263.7h-21l8.8-25.8
			c0.6-1.8,1.2-3.5,1.7-5.2c0.6,1.8,1.1,3.6,1.8,5.5L-70,263.7z"/>
		<path d="M10.8,264c-10.8-4.3-12-6.3-12-9.4c0-4,3.3-6.4,8.7-6.4c6.3,0,11.3,2.5,13.7,4l4.6,2.9l6.1-18.6l-2.8-1.8
			c-5.3-3.5-13.3-5.5-21.4-5.5c-18.1,0-31.2,11.4-31.2,27.2c0,14.5,12.8,22.2,23.6,26.1c10.7,4,11.6,6.8,11.6,10.2
			c0,6.4-6.7,7.3-10.7,7.3c-6.2,0-12.9-2.6-16.7-4.9l-4.6-2.7l-6,18.9l2.9,1.7c6.6,3.9,15.4,6.1,24.1,6.1
			c19.9,0,33.3-11.2,33.3-27.8C34,274.6,20.7,267.7,10.8,264z"/>
		<path d="M69.3,210.6l-22.4,6.8v13.4H34.8v19.3h12.1v38.3c0,10.7,2.1,18.3,6.6,23.4c4.4,4.7,10.9,7.4,18.5,7.4
			c6.8,0,11.7-1.4,14-2.2l3-1l-1.2-19.4l-5.2,1.5c-1.5,0.4-3.3,0.8-7,0.8c-2.7,0-6.4,0-6.4-10.9v-37.9h20.3v-19.3H69.3L69.3,210.6
			L69.3,210.6z"/>
		<path d="M144.2,230l-4.1-0.6c-1.2-0.2-2.4-0.3-4-0.3c-7.1,0-13.6,2.9-18.6,8l-0.3-6.3h-21l0.3,4.5c0.4,6.7,0.7,14.3,0.7,24.1v58
			h22.7v-45.8c0-2.1,0.2-4.3,0.4-5.8c1.7-9,7.3-14.6,14.9-14.6c1.8,0,2.9,0,3.9,0.2l5.2,1.1L144.2,230L144.2,230z"/>
		<path d="M185.5,229.2c-25.3,0-43,18.7-43,45.6c0,26.2,17.1,44.4,41.7,44.4c20.8,0,43.1-14.3,43.1-45.7
			C227.4,247.4,210.2,229.2,185.5,229.2z M204.4,274c0,15.1-8.2,26.1-19.4,26.1c-11.2,0-19.3-10.9-19.3-25.7
			c0-9.6,4.1-25.9,19.6-25.9C200.4,248.3,204.4,265.1,204.4,274z"/>
		<path d="M301.8,209.5c-7.4-6.7-18.7-10.1-33.3-10.1c-9.8,0-19.1,0.7-27.7,2.1l-3.5,0.6v115.3h22.5v-42.8c2.3,0.2,4.7,0.3,7.1,0.3
			c15.2,0,28.1-4.7,36.3-13.2c6.4-6.6,9.6-15.4,9.6-26.2C312.7,225,308.8,215.8,301.8,209.5z M290.2,236.2c0,16.4-14.4,18.8-23,18.8
			c-2.9,0-5.3-0.1-7.3-0.4v-35.2c2.2-0.3,5.2-0.4,9-0.4C278.5,219,290.2,222,290.2,236.2z"/>
		<path d="M381.7,294.4v-29.2c0-23.3-12.1-36-33.9-36c-10.1,0-20.7,2.8-28,7.4l-2.9,1.8l6.1,18l4.6-3.1c4.7-3.2,11.5-5.1,18.1-5.1
			c4.6-0.1,7.9,1,10.1,3.1c1.8,1.8,2.9,4.5,3.3,7.9c-17.7,0.5-30.6,4.7-38.6,12.6c-5.5,5.5-8.3,12.4-8.3,20.7
			c0,13.3,9.6,26.7,28.2,26.7c7.9,0,15.3-2.5,21.1-6.9l0.6,5.2h21.5l-0.8-4.9C382.1,307.8,381.7,301.7,381.7,294.4z M343.9,300.2
			c-3.4,0-9-1.2-9-9.3c0-3.1,0.9-5.6,2.9-7.5c2.6-2.6,8.5-5.6,21.7-5.8v9.3c0,0.7-0.1,1.9-0.4,3.1
			C357.5,294.7,352.6,300.2,343.9,300.2z"/>
		<path d="M444.2,230.8l-16.5,48.7c-0.4,1.2-0.8,2.5-1.2,3.7c-0.4-1.2-0.8-2.4-1.3-3.5l-18-48.9h-24.7l31,77.7l0.1,0.2
			c0.5,1,0.7,1.6,0.7,1.8c-0.2,0.4-0.5,1.2-0.7,1.7c-2.7,5.7-6.7,11.1-10.7,14.3l-0.1,0.1c-4.5,3.9-9.1,5.6-11,6.1l-4,1.3l5.8,19.4
			l3.7-0.7c2.3-0.4,10.3-2.3,19.5-10c11-9.8,18.3-25.3,27.9-50.5l23.5-61.4H444.2z"/>
		<path class="st0" d="M-48.8,232.4c14.6-14.9,39.4-23.8,66.3-23.8c10.5,0,20.7,1.3,30.4,4l0.8,0.2l17.2-5.2l-7.7-3
			c-14.7-5.6-31.6-8.6-49-8.6c-25.3,0-48.9,6.1-66.4,17.2l-1.9,1.2l7.3,21.3L-48.8,232.4z"/>
	</g>
</g>
</svg>
